# xmcd
#
# Track frame offsets: 
#        150
#        21996
#        42474
#        62166
#        83366
#        101924
#        125760
#        150438
#        167883
#        190270
#        209304
#        231855
#        256162
#        277381
#
# Disc length: 4196 seconds
#
# Revision: 0
# Processed by: cddbd v1.5.2PL0 Copyright (c) Steve Scherf et al.
# Submitted via: ExactAudioCopyFreeDBPlugin 1.0
#
DISCID=c810620e
DTITLE=Various Artist - Sex-Rated Blues (For Grown Folks)
DYEAR=2008
DGENRE=Blues
TTITLE0=Denise LaSalle - Bone It Like You Own It
TTITLE1=Chuck Robertson - A Whiskey Glass And A Woman's Ass
TTITLE2=Lee Shot Williams - Meat Man
TTITLE3=Barbara Carr - Bo Hawg Grind
TTITLE4=Dr. Feelgood Potts - Let's Get A Quickie
TTITLE5=Denise LaSalle - Dirty Freaky Man
TTITLE6=Ollie Nightengale - The Bull Shit Song
TTITLE7=Chuck Robertson - Candy Man
TTITLE8=Sheba Potts-Wright - Private Fishing Hole
TTITLE9=Lee Shot Williams - Everything I Like To Eat Starts With A P
TTITLE10=Barbara Carr - If You Can't Cut The Mustard
TTITLE11=Lee Shot Williams - She Made A Freak Out Of Me
TTITLE12=O.B.Buchana - I'm Ready To Get Nude
TTITLE13=Ollie Nightengale - I'm Gonna Turn This Bed Over
EXTD=
EXTT0=
EXTT1=
EXTT2=
EXTT3=
EXTT4=
EXTT5=
EXTT6=
EXTT7=
EXTT8=
EXTT9=
EXTT10=
EXTT11=
EXTT12=
EXTT13=
PLAYORDER=
